<svg xmlns="http://www.w3.org/2000/svg" width="960" height="220" viewBox="0 0 960 220" role="img" aria-labelledby="title description">
  <title id="title">WorkBench</title>
  <desc id="description">A local-first AI workbench for confidential industrial documents.</desc>
  <rect width="960" height="220" rx="22" fill="#0B1020"/>
  <rect x="1" y="1" width="958" height="218" rx="21" fill="none" stroke="#1E3A8A" stroke-width="2"/>
  <rect x="0" y="0" width="8" height="220" rx="4" fill="#3B82F6"/>
  <circle cx="890" cy="38" r="72" fill="#172554" opacity=".72"/>
  <circle cx="930" cy="174" r="96" fill="#172554" opacity=".45"/>
  <rect x="42" y="44" width="74" height="74" rx="18" fill="#172554" stroke="#3B82F6" stroke-width="2"/>
  <rect x="61" y="62" width="36" height="29" rx="4" fill="none" stroke="#BFDBFE" stroke-width="4"/>
  <path d="M68 101h22M73 107h12" stroke="#60A5FA" stroke-width="4" stroke-linecap="round"/>
  <text x="145" y="74" fill="#F8FAFC" font-family="Inter,Segoe UI,Arial,sans-serif" font-size="30" font-weight="700">WorkBench</text>
  <text x="145" y="106" fill="#CBD5E1" font-family="Inter,Segoe UI,Arial,sans-serif" font-size="18">Local-first AI for confidential industrial documents.</text>
  <text x="145" y="132" fill="#94A3B8" font-family="Inter,Segoe UI,Arial,sans-serif" font-size="16">Desktop workflows, local models, and controlled data boundaries.</text>
  <g font-family="Inter,Segoe UI,Arial,sans-serif" font-size="14" font-weight="600">
    <rect x="145" y="158" width="84" height="32" rx="16" fill="#172554" stroke="#2563EB"/>
    <text x="166" y="180" fill="#BFDBFE">React</text>
    <rect x="241" y="158" width="90" height="32" rx="16" fill="#172554" stroke="#2563EB"/>
    <text x="262" y="180" fill="#BFDBFE">FastAPI</text>
    <rect x="343" y="158" width="84" height="32" rx="16" fill="#172554" stroke="#2563EB"/>
    <text x="365" y="180" fill="#BFDBFE">Ollama</text>
  </g>
  <text x="860" y="186" fill="#60A5FA" font-family="Inter,Segoe UI,Arial,sans-serif" font-size="15" font-weight="700">VIEW REPO ↗</text>
</svg>
